<svg width="40" height="40" viewBox="0 0 40 40" fill="none" xmlns="http://www.w3.org/2000/svg">
<g id="Frame">
<g id="Group">
<rect id="Rectangle 190" x="11.1631" y="10.2325" width="16.7442" height="26.0465" fill="#4BAC88"/>
<path id="Vector" d="M29.3606 5H25.0001V1.25C25.0001 0.56 24.4401 0 23.7501 0H16.2501C15.5601 0 15.0001 0.56 15.0001 1.25V5H10.6396C9.26215 5 8.13965 6.1225 8.13965 7.5V37.5C8.13965 38.9025 9.23715 40 10.6396 40H29.3606C30.7631 40 31.8606 38.9025 31.8606 37.5V7.5C31.8606 6.0975 30.7631 5 29.3606 5ZM20.0001 32.5V25H15.0001L20.0001 12.5V20H25.0001L20.0001 32.5Z" fill="black"/>
</g>
</g>
</svg>
