<svg width="28" height="28" viewBox="0 0 28 28" fill="none" xmlns="http://www.w3.org/2000/svg">
<path d="M14 28C21.732 28 28 21.732 28 14C28 6.26801 21.732 0 14 0C6.26802 0 0 6.26801 0 14C0 21.732 6.26802 28 14 28Z" fill="#4BAC88"/>
<path d="M15.082 12.0951C15.3109 11.8296 15.5032 11.5732 15.7321 11.3443C16.4285 10.6777 17.3595 10.3125 18.3234 10.3279C18.8735 10.317 19.4223 10.3848 19.9532 10.5294C20.5093 10.6815 21.0132 10.9829 21.4102 11.4009C21.8073 11.8189 22.0824 12.3376 22.2057 12.9008C22.4366 13.7974 22.5384 14.7224 22.5078 15.6477C22.5078 17.5797 22.5078 19.5209 22.5078 21.4528C22.5078 21.636 22.462 21.6817 22.2789 21.6817H19.2939C19.1108 21.6817 19.0742 21.6268 19.0742 21.462C19.0742 19.6307 19.0742 17.7995 19.0742 15.9682C19.0942 15.482 19.048 14.9953 18.9368 14.5215C18.8533 14.1472 18.6338 13.8173 18.3208 13.5957C18.0078 13.374 17.6237 13.2765 17.2429 13.322C16.9926 13.3057 16.7416 13.341 16.5055 13.4257C16.2694 13.5104 16.0532 13.6427 15.8704 13.8144C15.6875 13.9861 15.5419 14.1936 15.4425 14.4239C15.3431 14.6542 15.2921 14.9025 15.2926 15.1533C15.2561 15.4387 15.2378 15.7262 15.2377 16.014C15.2377 17.8453 15.2377 19.5941 15.2377 21.3887C15.2377 21.5627 15.2377 21.6177 15.0088 21.6177H11.9964C11.8407 21.6177 11.7949 21.5719 11.7949 21.4071V10.859C11.7949 10.685 11.8499 10.6484 12.0147 10.6484H14.8714C15.0546 10.6484 15.1004 10.7033 15.0912 10.8681C15.0729 11.2436 15.082 11.6647 15.082 12.0951Z" fill="white"/>
<path d="M9.61368 16.1421C9.61368 17.891 9.61368 19.649 9.61368 21.3978C9.61368 21.5993 9.5679 21.6542 9.36646 21.6542H6.37234C6.21668 21.6542 6.1709 21.6084 6.1709 21.4436V10.7948C6.1709 10.6483 6.1709 10.6025 6.36319 10.6025H9.39392C9.58621 10.6025 9.61368 10.6758 9.61368 10.8406C9.61368 12.6078 9.61368 14.3749 9.61368 16.1421Z" fill="white"/>
<path d="M9.88983 7.0779C9.89155 7.47319 9.77533 7.86 9.55602 8.18888C9.33671 8.51776 9.02428 8.77374 8.6587 8.9241C8.29312 9.07446 7.891 9.11235 7.50377 9.03294C7.11653 8.95353 6.76179 8.76042 6.4849 8.4783C6.20801 8.19619 6.02157 7.8379 5.9494 7.44925C5.87724 7.0606 5.92265 6.65926 6.07981 6.29655C6.23698 5.93384 6.49875 5.62626 6.83167 5.41314C7.16459 5.20001 7.55351 5.09103 7.9487 5.10014C8.46611 5.11206 8.95845 5.32539 9.32097 5.69476C9.6835 6.06412 9.88759 6.56036 9.88983 7.0779Z" fill="white"/>
</svg>
