<svg width="25" height="25" viewBox="0 0 25 25" fill="none" xmlns="http://www.w3.org/2000/svg">
<g id="Frame" clip-path="url(#clip0_413_559)">
<g id="Group">
<path id="Vector" d="M6.5 5.29998C6.5 4.63726 7.03728 4.09998 7.7 4.09998H23.3C23.9627 4.09998 24.5 4.63726 24.5 5.29998C24.5 5.96269 23.9627 6.49998 23.3 6.49998H7.7C7.03728 6.49998 6.5 5.96265 6.5 5.29998ZM23.3 11.3H1.7C1.03728 11.3 0.5 11.8373 0.5 12.5C0.5 13.1627 1.03728 13.7 1.7 13.7H23.3C23.9627 13.7 24.5 13.1627 24.5 12.5C24.5 11.8373 23.9627 11.3 23.3 11.3ZM23.3 18.5H12.5C11.8373 18.5 11.3 19.0373 11.3 19.7C11.3 20.3626 11.8373 20.9 12.5 20.9H23.3C23.9627 20.9 24.5 20.3626 24.5 19.7C24.5 19.0373 23.9627 18.5 23.3 18.5Z" fill="black"/>
</g>
</g>
<defs>
<clipPath id="clip0_413_559">
<rect width="24" height="24" fill="white" transform="translate(0.5 0.5)"/>
</clipPath>
</defs>
</svg>
