<svg width="51" height="52" viewBox="0 0 51 52" fill="none" xmlns="http://www.w3.org/2000/svg">
<g id="Frame 82">
<g id="Group 1000002707">
<path id="Vector" d="M38.3395 26.776L29.7075 22.5641L41.7704 3.97778L14.9009 19.6434C13.6306 20.3827 13.6827 22.2309 14.9895 22.9025L24.4596 27.7444L12.2041 45.3103L38.4593 30.0455C39.7452 29.301 39.6775 27.4216 38.3395 26.7708V26.776Z" fill="#4BAC88"/>
<g id="Group">
<path id="Vector_2" d="M9.1854 46.0028L10.4974 44.1233L13.5534 39.7448C8.50338 35.0071 6.32196 27.6299 8.54503 20.5858C11.497 11.2406 21.1546 5.88333 30.5363 8.11681L32.7333 6.83607C32.2127 6.62782 31.6816 6.42999 31.1402 6.25818C18.9471 2.40555 5.9419 9.16327 2.08406 21.3563C-0.815825 30.5246 2.2871 40.1509 9.1854 46.0028Z" fill="#1E1E1E"/>
<path id="Vector_3" d="M39.6269 11.1052L38.7575 12.4484C43.9481 17.1757 46.2233 24.6571 43.969 31.7897C40.8764 41.5723 30.4379 46.992 20.6605 43.8995C20.2649 43.7745 19.8796 43.6339 19.4996 43.4882L13.2572 47.1169L11.8359 47.9447C13.4707 48.9703 15.2564 49.8086 17.1828 50.4177C29.3758 54.2703 42.3863 47.5126 46.2389 35.3195C49.0659 26.3752 46.1764 16.9935 39.6269 11.1104V11.1052Z" fill="#1E1E1E"/>
</g>
<path id="Vector_4" d="M43.4162 5.12842H47.2116V8.92378C47.2116 9.72034 46.5608 10.3711 45.7642 10.3711H41.9689V6.57576C41.9689 5.7792 42.6197 5.12842 43.4162 5.12842Z" fill="#1E1E1E"/>
<path id="Vector_5" d="M34.6024 0.5C34.0193 0.5 33.5508 0.97377 33.5508 1.55166V3.64979H35.6489C36.232 3.64979 36.7006 3.17602 36.7006 2.59812V0.5H34.6024Z" fill="#1E1E1E"/>
<path id="Vector_6" d="M46.6911 11.9277C46.108 11.9277 45.6394 12.4015 45.6394 12.9794V15.0775H47.7375C48.3206 15.0775 48.7892 14.6038 48.7892 14.0259V11.9277H46.6911Z" fill="#1E1E1E"/>
<path id="Vector_7" d="M36.9815 15.6189C36.1277 15.6189 35.4404 16.3113 35.4404 17.1599V20.2264H38.5069C39.3607 20.2264 40.048 19.534 40.048 18.6854V15.6189H36.9815Z" fill="#1E1E1E"/>
</g>
</g>
</svg>
