<svg width="1306" height="900" viewBox="0 0 1306 900" fill="none" xmlns="http://www.w3.org/2000/svg">
<rect x="1" y="900" width="1" height="900" transform="rotate(-180 1 900)" fill="url(#paint0_linear_413_731)"/>
<rect x="120" y="900" width="1" height="900" transform="rotate(-180 120 900)" fill="url(#paint1_linear_413_731)"/>
<rect x="238" y="900" width="1" height="900" transform="rotate(-180 238 900)" fill="url(#paint2_linear_413_731)"/>
<rect x="357" y="900" width="1" height="900" transform="rotate(-180 357 900)" fill="url(#paint3_linear_413_731)"/>
<rect x="475" y="900" width="1" height="900" transform="rotate(-180 475 900)" fill="url(#paint4_linear_413_731)"/>
<rect x="594" y="900" width="1" height="900" transform="rotate(-180 594 900)" fill="url(#paint5_linear_413_731)"/>
<rect x="712" y="900" width="1" height="900" transform="rotate(-180 712 900)" fill="url(#paint6_linear_413_731)"/>
<rect x="831" y="900" width="1" height="900" transform="rotate(-180 831 900)" fill="url(#paint7_linear_413_731)"/>
<rect x="950" y="900" width="1" height="900" transform="rotate(-180 950 900)" fill="url(#paint8_linear_413_731)"/>
<rect x="1069" y="900" width="1" height="900" transform="rotate(-180 1069 900)" fill="url(#paint9_linear_413_731)"/>
<rect x="1187" y="900" width="1" height="900" transform="rotate(-180 1187 900)" fill="url(#paint10_linear_413_731)"/>
<rect x="1306" y="900" width="1" height="900" transform="rotate(-180 1306 900)" fill="url(#paint11_linear_413_731)"/>
<defs>
<linearGradient id="paint0_linear_413_731" x1="1.5" y1="900" x2="1.5" y2="1800" gradientUnits="userSpaceOnUse">
<stop stop-color="#EAEAEA"/>
<stop offset="1" stop-color="white" stop-opacity="0"/>
</linearGradient>
<linearGradient id="paint1_linear_413_731" x1="120.5" y1="900" x2="120.5" y2="1800" gradientUnits="userSpaceOnUse">
<stop stop-color="#EAEAEA"/>
<stop offset="1" stop-color="white" stop-opacity="0"/>
</linearGradient>
<linearGradient id="paint2_linear_413_731" x1="238.5" y1="900" x2="238.5" y2="1800" gradientUnits="userSpaceOnUse">
<stop stop-color="#EAEAEA"/>
<stop offset="1" stop-color="white" stop-opacity="0"/>
</linearGradient>
<linearGradient id="paint3_linear_413_731" x1="357.5" y1="900" x2="357.5" y2="1800" gradientUnits="userSpaceOnUse">
<stop stop-color="#EAEAEA"/>
<stop offset="1" stop-color="white" stop-opacity="0"/>
</linearGradient>
<linearGradient id="paint4_linear_413_731" x1="475.5" y1="900" x2="475.5" y2="1800" gradientUnits="userSpaceOnUse">
<stop stop-color="#EAEAEA"/>
<stop offset="1" stop-color="white" stop-opacity="0"/>
</linearGradient>
<linearGradient id="paint5_linear_413_731" x1="594.5" y1="900" x2="594.5" y2="1800" gradientUnits="userSpaceOnUse">
<stop stop-color="#EAEAEA"/>
<stop offset="1" stop-color="white" stop-opacity="0"/>
</linearGradient>
<linearGradient id="paint6_linear_413_731" x1="712.5" y1="900" x2="712.5" y2="1800" gradientUnits="userSpaceOnUse">
<stop stop-color="#EAEAEA"/>
<stop offset="1" stop-color="white" stop-opacity="0"/>
</linearGradient>
<linearGradient id="paint7_linear_413_731" x1="831.5" y1="900" x2="831.5" y2="1800" gradientUnits="userSpaceOnUse">
<stop stop-color="#EAEAEA"/>
<stop offset="1" stop-color="white" stop-opacity="0"/>
</linearGradient>
<linearGradient id="paint8_linear_413_731" x1="950.5" y1="900" x2="950.5" y2="1800" gradientUnits="userSpaceOnUse">
<stop stop-color="#EAEAEA"/>
<stop offset="1" stop-color="white" stop-opacity="0"/>
</linearGradient>
<linearGradient id="paint9_linear_413_731" x1="1069.5" y1="900" x2="1069.5" y2="1800" gradientUnits="userSpaceOnUse">
<stop stop-color="white"/>
<stop offset="1" stop-color="white" stop-opacity="0"/>
</linearGradient>
<linearGradient id="paint10_linear_413_731" x1="1187.5" y1="900" x2="1187.5" y2="1800" gradientUnits="userSpaceOnUse">
<stop stop-color="white"/>
<stop offset="1" stop-color="white" stop-opacity="0"/>
</linearGradient>
<linearGradient id="paint11_linear_413_731" x1="1306.5" y1="900" x2="1306.5" y2="1800" gradientUnits="userSpaceOnUse">
<stop stop-color="white"/>
<stop offset="1" stop-color="white" stop-opacity="0"/>
</linearGradient>
</defs>
</svg>
