<svg width="28" height="28" viewBox="0 0 28 28" fill="none" xmlns="http://www.w3.org/2000/svg">
<path d="M14 28C21.732 28 28 21.732 28 14C28 6.26801 21.732 0 14 0C6.26801 0 0 6.26801 0 14C0 21.732 6.26801 28 14 28Z" fill="#1E1E1E"/>
<path d="M18.336 8.70831C18.1428 8.70862 17.9541 8.76689 17.7944 8.8756C17.6346 8.98431 17.5112 9.13845 17.44 9.31808C17.3688 9.49771 17.3531 9.69457 17.395 9.8832C17.4369 10.0718 17.5345 10.2435 17.675 10.3761C17.8156 10.5087 17.9927 10.5961 18.1834 10.627C18.3742 10.6578 18.5698 10.6307 18.745 10.5492C18.9202 10.4677 19.0668 10.3354 19.1661 10.1696C19.2653 10.0038 19.3125 9.81209 19.3016 9.61917C19.3018 9.49481 19.2765 9.37173 19.2274 9.2575C19.1782 9.14327 19.1062 9.04031 19.0157 8.95497C18.9253 8.86964 18.8183 8.80373 18.7014 8.7613C18.5845 8.71888 18.4602 8.70084 18.336 8.70831Z" fill="white"/>
<path d="M14.0638 9.93713C13.2639 9.93713 12.482 10.1743 11.8169 10.6187C11.1518 11.0631 10.6335 11.6947 10.3274 12.4337C10.0213 13.1727 9.94119 13.9859 10.0972 14.7704C10.2533 15.5549 10.6385 16.2755 11.2041 16.8411C11.7697 17.4067 12.4903 17.7919 13.2748 17.9479C14.0593 18.104 14.8725 18.0239 15.6114 17.7178C16.3504 17.4117 16.9821 16.8933 17.4264 16.2282C17.8708 15.5632 18.108 14.7813 18.108 13.9814C18.108 12.9088 17.6819 11.8801 16.9235 11.1217C16.165 10.3632 15.1364 9.93713 14.0638 9.93713ZM14.0638 16.5682C13.5521 16.5682 13.052 16.4165 12.6266 16.1323C12.2012 15.848 11.8696 15.444 11.6738 14.9713C11.478 14.4986 11.4268 13.9785 11.5266 13.4767C11.6264 12.9749 11.8728 12.514 12.2346 12.1522C12.5964 11.7904 13.0573 11.544 13.5591 11.4442C14.0609 11.3444 14.581 11.3956 15.0537 11.5914C15.5264 11.7872 15.9304 12.1188 16.2147 12.5442C16.4989 12.9696 16.6506 13.4697 16.6506 13.9814C16.6482 14.6667 16.3749 15.3233 15.8903 15.8079C15.4057 16.2925 14.7491 16.5658 14.0638 16.5682Z" fill="white"/>
<path d="M17.2692 22.1878H10.7201C9.41233 22.1878 8.15799 21.669 7.23241 20.7451C6.30682 19.8212 5.78562 18.5678 5.7832 17.2601V10.7018C5.78562 9.39406 6.30682 8.14069 7.23241 7.21681C8.15799 6.29293 9.41233 5.77405 10.7201 5.77405H17.2692C18.5761 5.77405 19.8295 6.29322 20.7537 7.21736C21.6778 8.1415 22.197 9.3949 22.197 10.7018V17.2601C22.197 18.567 21.6778 19.8204 20.7537 20.7445C19.8295 21.6687 18.5761 22.1878 17.2692 22.1878ZM10.7201 7.31341C9.82217 7.31581 8.96171 7.67358 8.32678 8.30851C7.69185 8.94344 7.33408 9.8039 7.33168 10.7018V17.2601C7.33409 18.1571 7.69214 19.0167 8.32733 19.6501C8.96252 20.2836 9.82301 20.6394 10.7201 20.6394H17.2692C18.1663 20.6394 19.0268 20.2836 19.662 19.6501C20.2972 19.0167 20.6552 18.1571 20.6576 17.2601V10.7018C20.6552 9.8039 20.2975 8.94344 19.6625 8.30851C19.0276 7.67358 18.1671 7.31581 17.2692 7.31341H10.7201Z" fill="white"/>
</svg>
