<svg width="732" height="222" viewBox="0 0 732 222" fill="none" xmlns="http://www.w3.org/2000/svg">
<path d="M720.667 6C720.667 8.94552 723.055 11.3333 726 11.3333C728.945 11.3333 731.333 8.94552 731.333 6C731.333 3.05448 728.945 0.666667 726 0.666667C723.055 0.666667 720.667 3.05448 720.667 6ZM7.29289 221.707C7.68342 222.098 8.31658 222.098 8.70711 221.707L15.0711 215.343C15.4616 214.953 15.4616 214.319 15.0711 213.929C14.6805 213.538 14.0474 213.538 13.6569 213.929L8 219.586L2.34315 213.929C1.95262 213.538 1.31946 213.538 0.928932 213.929C0.538408 214.319 0.538408 214.953 0.928932 215.343L7.29289 221.707ZM725 6V94.5H727V6H725ZM702 117.5H32V119.5H702V117.5ZM7 142.5V221H9V142.5H7ZM32 117.5C18.1929 117.5 7 128.693 7 142.5H9C9 129.797 19.2974 119.5 32 119.5V117.5ZM725 94.5C725 107.203 714.703 117.5 702 117.5V119.5C715.807 119.5 727 108.307 727 94.5H725Z" fill="#4BAC88"/>
</svg>
