<svg width="36" height="36" viewBox="0 0 36 36" fill="none" xmlns="http://www.w3.org/2000/svg">
<path d="M18 3C9.735 3 3 9.735 3 18C3 26.265 9.735 33 18 33C26.265 33 33 26.265 33 18C33 9.735 26.265 3 18 3ZM25.17 14.55L16.665 23.055C16.455 23.265 16.17 23.385 15.87 23.385C15.57 23.385 15.285 23.265 15.075 23.055L10.83 18.81C10.395 18.375 10.395 17.655 10.83 17.22C11.265 16.785 11.985 16.785 12.42 17.22L15.87 20.67L23.58 12.96C24.015 12.525 24.735 12.525 25.17 12.96C25.605 13.395 25.605 14.1 25.17 14.55Z" fill="url(#paint0_linear_413_897)"/>
<defs>
<linearGradient id="paint0_linear_413_897" x1="3" y1="18" x2="33" y2="18" gradientUnits="userSpaceOnUse">
<stop stop-color="#349E77"/>
<stop offset="1" stop-color="#57BC97"/>
</linearGradient>
</defs>
</svg>
