<svg width="28" height="28" viewBox="0 0 28 28" fill="none" xmlns="http://www.w3.org/2000/svg">
<path d="M14 28C21.732 28 28 21.732 28 14C28 6.26801 21.732 0 14 0C6.26801 0 0 6.26801 0 14C0 21.732 6.26801 28 14 28Z" fill="#1E1E1E"/>
<path d="M15.5545 12.7491L21.635 5.83301H20.1941L14.9145 11.8381L10.6976 5.83301H5.83398L12.2107 14.9138L5.83398 22.1663H7.27494L12.8504 15.8247L17.3037 22.1663H22.1673L15.5542 12.7491H15.5545ZM13.581 14.9938L12.9349 14.0896L7.79413 6.89441H10.0074L14.156 12.7011L14.8021 13.6054L20.1948 21.1532H17.9816L13.581 14.9941V14.9938Z" fill="white"/>
</svg>
