<svg width="64" height="62" viewBox="0 0 64 62" fill="none" xmlns="http://www.w3.org/2000/svg">
<g clip-path="url(#clip0_413_747)" filter="url(#filter0_dddd_413_747)">
<path d="M8 2H56V34H8V2Z" fill="white"/>
<path d="M8 2H56V4.46082H8V2ZM8 6.92164H56V9.38246H8V6.92164ZM8 11.8433H56V14.3041H8V11.8433ZM8 16.7649H56V19.2257H8V16.7649ZM8 21.6959H56V24.1567H8V21.6959ZM8 26.6175H56V29.0784H8V26.6175ZM8 31.5392H56V34H8V31.5392Z" fill="#D80027"/>
<path d="M8 2H32V19.2257H8V2Z" fill="#2E52B2"/>
<path d="M12.4722 14.9965L12.098 13.7988L11.6863 14.9965H10.4512L11.4523 15.7169L11.0781 16.9146L12.098 16.1754L13.0898 16.9146L12.7061 15.7169L13.726 14.9965H12.4722ZM17.7401 14.9965L17.3564 13.7988L16.9635 14.9965H15.7284L16.7295 15.7169L16.3553 16.9146L17.3564 16.1754L18.367 16.9146L17.9927 15.7169L18.9939 14.9965H17.7401ZM23.0266 14.9965L22.6243 13.7988L22.25 14.9965H20.9868L22.0161 15.7169L21.6231 16.9146L22.6243 16.1754L23.6535 16.9146L23.2605 15.7169L24.2617 14.9965H23.0266ZM28.2851 14.9965L27.9108 13.7988L27.5178 14.9965H26.2734L27.2839 15.7169L26.9097 16.9146L27.9108 16.1754L28.9213 16.9146L28.519 15.7169L29.5482 14.9965H28.2851ZM17.3564 9.0456L16.9635 10.2433H15.7284L16.7295 10.9824L16.3553 12.1614L17.3564 11.4316L18.367 12.1614L17.9927 10.9824L18.9939 10.2433H17.7401L17.3564 9.0456ZM12.098 9.0456L11.6863 10.2433H10.4512L11.4523 10.9824L11.0781 12.1614L12.098 11.4316L13.0898 12.1614L12.7061 10.9824L13.726 10.2433H12.4722L12.098 9.0456ZM22.6243 9.0456L22.25 10.2433H20.9868L22.0161 10.9824L21.6231 12.1614L22.6243 11.4316L23.6535 12.1614L23.2605 10.9824L24.2617 10.2433H23.0266L22.6243 9.0456ZM27.9108 9.0456L27.5178 10.2433H26.2734L27.2839 10.9824L26.9097 12.1614L27.9108 11.4316L28.9213 12.1614L28.519 10.9824L29.5482 10.2433H28.2851L27.9108 9.0456ZM12.098 4.3111L11.6863 5.49004H10.4512L11.4523 6.22922L11.0781 7.41753L12.098 6.67835L13.0898 7.41753L12.7061 6.22922L13.726 5.49004H12.4722L12.098 4.3111ZM17.3564 4.3111L16.9635 5.49004H15.7284L16.7295 6.22922L16.3553 7.41753L17.3564 6.67835L18.367 7.41753L17.9927 6.22922L18.9939 5.49004H17.7401L17.3564 4.3111ZM22.6243 4.3111L22.25 5.49004H20.9868L22.0161 6.22922L21.6231 7.41753L22.6243 6.67835L23.6535 7.41753L23.2605 6.22922L24.2617 5.49004H23.0266L22.6243 4.3111ZM27.9108 4.3111L27.5178 5.49004H26.2734L27.2839 6.22922L26.9097 7.41753L27.9108 6.67835L28.9213 7.41753L28.519 6.22922L29.5482 5.49004H28.2851L27.9108 4.3111Z" fill="white"/>
</g>
<defs>
<filter id="filter0_dddd_413_747" x="0" y="0" width="64" height="62" filterUnits="userSpaceOnUse" color-interpolation-filters="sRGB">
<feFlood flood-opacity="0" result="BackgroundImageFix"/>
<feColorMatrix in="SourceAlpha" type="matrix" values="0 0 0 0 0 0 0 0 0 0 0 0 0 0 0 0 0 0 127 0" result="hardAlpha"/>
<feOffset dy="1"/>
<feGaussianBlur stdDeviation="1.5"/>
<feColorMatrix type="matrix" values="0 0 0 0 0 0 0 0 0 0 0 0 0 0 0 0 0 0 0.1 0"/>
<feBlend mode="normal" in2="BackgroundImageFix" result="effect1_dropShadow_413_747"/>
<feColorMatrix in="SourceAlpha" type="matrix" values="0 0 0 0 0 0 0 0 0 0 0 0 0 0 0 0 0 0 127 0" result="hardAlpha"/>
<feOffset dy="5"/>
<feGaussianBlur stdDeviation="2.5"/>
<feColorMatrix type="matrix" values="0 0 0 0 0 0 0 0 0 0 0 0 0 0 0 0 0 0 0.09 0"/>
<feBlend mode="normal" in2="effect1_dropShadow_413_747" result="effect2_dropShadow_413_747"/>
<feColorMatrix in="SourceAlpha" type="matrix" values="0 0 0 0 0 0 0 0 0 0 0 0 0 0 0 0 0 0 127 0" result="hardAlpha"/>
<feOffset dy="11"/>
<feGaussianBlur stdDeviation="3.5"/>
<feColorMatrix type="matrix" values="0 0 0 0 0 0 0 0 0 0 0 0 0 0 0 0 0 0 0.05 0"/>
<feBlend mode="normal" in2="effect2_dropShadow_413_747" result="effect3_dropShadow_413_747"/>
<feColorMatrix in="SourceAlpha" type="matrix" values="0 0 0 0 0 0 0 0 0 0 0 0 0 0 0 0 0 0 127 0" result="hardAlpha"/>
<feOffset dy="20"/>
<feGaussianBlur stdDeviation="4"/>
<feColorMatrix type="matrix" values="0 0 0 0 0 0 0 0 0 0 0 0 0 0 0 0 0 0 0.01 0"/>
<feBlend mode="normal" in2="effect3_dropShadow_413_747" result="effect4_dropShadow_413_747"/>
<feBlend mode="normal" in="SourceGraphic" in2="effect4_dropShadow_413_747" result="shape"/>
</filter>
<clipPath id="clip0_413_747">
<rect width="48" height="32" fill="white" transform="translate(8 2)"/>
</clipPath>
</defs>
</svg>
